<?xml version="1.0" standalone="no"?>
<!DOCTYPE svg PUBLIC "-//W3C//DTD SVG 20010904//EN"
 "http://www.w3.org/TR/2001/REC-SVG-20010904/DTD/svg10.dtd">
<svg version="1.0" xmlns="http://www.w3.org/2000/svg"
 width="512.000000pt" height="512.000000pt" viewBox="0 0 512.000000 512.000000"
 preserveAspectRatio="xMidYMid meet">

<g transform="translate(0.000000,512.000000) scale(0.100000,-0.100000)"
fill="#000000" stroke="none">
<path d="M661 4500 c-87 -31 -154 -90 -199 -175 l-27 -50 0 -1300 0 -1300 28
-53 c36 -69 97 -128 161 -158 36 -16 319 -76 938 -199 488 -96 891 -175 897
-175 8 0 11 459 11 1554 l0 1554 -412 81 c-227 45 -595 117 -818 161 -243 48
-428 80 -465 80 -33 -1 -84 -9 -114 -20z m929 -922 c147 -68 230 -209 230
-392 l0 -62 55 -23 c70 -29 137 -101 156 -168 12 -43 9 -86 -25 -433 -21 -212
-44 -404 -51 -427 -29 -97 -130 -173 -230 -173 -70 0 -689 145 -732 171 -46
29 -98 92 -111 137 -18 59 -104 833 -97 875 16 110 111 202 221 215 41 4 43 6
63 61 41 110 122 191 234 232 76 28 212 22 287 -13z"/>
<path d="M1352 3430 c-45 -19 -91 -62 -111 -104 -12 -23 -21 -47 -21 -53 0 -5
33 -17 73 -26 39 -9 137 -32 216 -51 l144 -34 -6 65 c-8 80 -42 143 -99 180
-32 22 -55 28 -107 30 -36 2 -76 -2 -89 -7z"/>
<path d="M992 3114 c-45 -31 -45 -33 3 -449 24 -218 49 -404 54 -414 6 -10 16
-22 23 -28 15 -13 610 -153 648 -153 28 0 65 29 74 57 3 10 21 182 41 382 30
297 34 369 25 392 -12 28 -30 39 -30 19 0 -6 -11 -22 -25 -35 -50 -51 -131
-17 -142 60 l-5 40 -222 53 c-121 29 -224 53 -228 52 -5 0 -8 -11 -8 -25 0
-38 -25 -92 -48 -104 -33 -18 -69 -13 -99 13 -26 23 -28 29 -25 90 1 36 -1 66
-6 66 -4 0 -18 -7 -30 -16z"/>
<path d="M3462 4361 c-441 -87 -804 -160 -807 -163 -3 -3 -4 -440 -3 -973 l3
-967 34 47 c128 178 361 333 589 391 499 128 1012 -118 1233 -590 67 -145 107
-349 95 -496 l-5 -75 24 30 c14 17 34 54 45 83 20 53 20 73 18 1340 l-3 1287
-27 50 c-35 68 -97 128 -166 162 -45 22 -71 27 -141 30 -76 2 -177 -16 -889
-156z m692 -265 c47 -20 93 -63 124 -115 l27 -46 3 -338 c3 -286 1 -346 -13
-386 -20 -60 -66 -116 -118 -143 -53 -27 -923 -228 -985 -228 -90 0 -190 68
-229 155 -16 35 -18 79 -21 352 -4 345 2 397 48 462 59 81 72 85 573 203 484
113 513 117 591 84z"/>
<path d="M3600 3845 c-480 -112 -472 -109 -485 -178 -4 -18 -5 -162 -3 -320
l3 -289 28 -24 c15 -13 39 -24 52 -24 33 0 880 197 905 210 12 6 25 22 30 36
13 34 13 605 0 639 -6 15 -24 32 -45 40 -19 8 -36 15 -37 14 -2 -1 -203 -48
-448 -104z"/>
<path d="M3377 2545 c-169 -32 -315 -107 -445 -230 -189 -178 -282 -391 -282
-646 0 -65 7 -149 15 -187 100 -477 565 -787 1044 -697 85 16 195 54 247 85
l31 18 204 -205 c112 -112 223 -216 247 -230 36 -21 52 -25 98 -21 90 8 144
62 152 151 3 38 -1 64 -13 88 -10 19 -109 126 -221 239 l-203 205 31 45 c171
249 201 600 74 875 -113 245 -332 429 -591 496 -105 27 -283 34 -388 14z m278
-340 c206 -43 378 -212 425 -415 21 -91 16 -216 -14 -300 -136 -393 -620 -507
-912 -216 -112 112 -164 235 -164 389 0 156 52 280 165 392 137 137 312 189
500 150z"/>
</g>
</svg>
